<?xml version="1.0" encoding="utf-8"?>
<!-- Generator: Adobe Illustrator 24.2.0, SVG Export Plug-In . SVG Version: 6.00 Build 0)  -->
<svg version="1.1" id="Layer_1" xmlns="http://www.w3.org/2000/svg" xmlns:xlink="http://www.w3.org/1999/xlink" x="0px" y="0px"
	 viewBox="0 0 1000 1000" style="enable-background:new 0 0 1000 1000;" xml:space="preserve">
<style type="text/css">
	.st0{fill:#1B1464;}
	.st1{opacity:0.3;}
	.st2{fill:none;stroke:#FFFFFF;stroke-width:3;}
	.st3{fill:#FFFFFF;}
</style>
<g>
	<rect x="0.5" y="0.5" class="st0" width="999" height="999"/>
	<path d="M999,1v998H1V1H999 M1000,0H0v1000h1000V0L1000,0z"/>
</g>
<g>
	<g class="st1">
		<g>
			<polyline class="st2" points="239.73,572.98 356.17,506.22 387.77,425.09 328.05,367.25 493.26,361.89 514.15,372.33 527,402.32 
				583.77,417.32 650.71,542.91 760.5,680 			"/>
			<polyline class="st2" points="485.66,581.84 496.77,489.13 583.77,417.32 			"/>
		</g>
	</g>
	<polygon class="st3" points="327.96,352.65 332.52,361.88 342.71,363.36 335.33,370.55 337.07,380.7 327.96,375.91 318.85,380.7 
		320.59,370.55 313.22,363.36 323.41,361.88 	"/>
	<polygon class="st3" points="493.17,347.87 497.72,357.11 507.91,358.59 500.54,365.77 502.28,375.92 493.17,371.13 484.05,375.92 
		485.79,365.77 478.42,358.59 488.61,357.11 	"/>
	<polygon class="st3" points="514.33,358.63 518.89,367.87 529.08,369.35 521.71,376.53 523.45,386.68 514.33,381.89 505.22,386.68 
		506.96,376.53 499.59,369.35 509.78,367.87 	"/>
	<polygon class="st3" points="529.08,388.16 533.64,397.39 543.83,398.87 536.45,406.06 538.19,416.21 529.08,411.42 519.97,416.21 
		521.71,406.06 514.33,398.87 524.52,397.39 	"/>
	<polygon class="st3" points="583.77,404.65 588.33,413.88 598.52,415.36 591.14,422.55 592.88,432.7 583.77,427.91 574.66,432.7 
		576.4,422.55 569.03,415.36 579.22,413.88 	"/>
	<polygon class="st3" points="496.54,476.35 501.1,485.58 511.29,487.06 503.91,494.25 505.65,504.4 496.54,499.61 487.43,504.4 
		489.17,494.25 481.8,487.06 491.98,485.58 	"/>
	<polygon class="st3" points="485.66,567.82 490.22,577.05 500.41,578.53 493.03,585.72 494.77,595.86 485.66,591.07 476.55,595.86 
		478.29,585.72 470.92,578.53 481.1,577.05 	"/>
	<polygon class="st3" points="650.6,527.91 655.15,537.15 665.34,538.63 657.97,545.81 659.71,555.96 650.6,551.17 641.48,555.96 
		643.22,545.81 635.85,538.63 646.04,537.15 	"/>
	<polygon class="st3" points="760.49,665.98 765.05,675.21 775.24,676.69 767.87,683.88 769.61,694.03 760.49,689.24 751.38,694.03 
		753.12,683.88 745.75,676.69 755.94,675.21 	"/>
	<polygon class="st3" points="386.9,410.7 391.46,419.94 401.65,421.42 394.27,428.6 396.01,438.75 386.9,433.96 377.79,438.75 
		379.53,428.6 372.16,421.42 382.34,419.94 	"/>
	<polygon class="st3" points="356.38,490.37 360.94,499.61 371.13,501.09 363.75,508.27 365.49,518.42 356.38,513.63 347.27,518.42 
		349.01,508.27 341.64,501.09 351.82,499.61 	"/>
	<polygon class="st3" points="316.27,514.58 320.83,523.81 331.02,525.29 323.65,532.48 325.39,542.63 316.27,537.84 307.16,542.63 
		308.9,532.48 301.53,525.29 311.72,523.81 	"/>
	<polygon class="st3" points="239.73,559.1 244.29,568.34 254.48,569.82 247.11,577 248.85,587.15 239.73,582.36 230.62,587.15 
		232.36,577 224.99,569.82 235.18,568.34 	"/>
</g>
</svg>
