<?xml version="1.0" encoding="utf-8"?>
<!-- Generator: Adobe Illustrator 24.2.0, SVG Export Plug-In . SVG Version: 6.00 Build 0)  -->
<svg version="1.1" id="Layer_1" xmlns="http://www.w3.org/2000/svg" xmlns:xlink="http://www.w3.org/1999/xlink" x="0px" y="0px"
	 viewBox="0 0 1000 1000" style="enable-background:new 0 0 1000 1000;" xml:space="preserve">
<style type="text/css">
	.st0{fill:#1B1464;}
	.st1{opacity:0.3;}
	.st2{fill:none;stroke:#FFFFFF;stroke-width:3;}
	.st3{fill:#FFFFFF;}
</style>
<g>
	<rect x="0.5" y="0.5" class="st0" width="999" height="999"/>
	<path d="M999,1v998H1V1H999 M1000,0H0v1000h1000V0L1000,0z"/>
</g>
<g>
	<g class="st1">
		<polyline class="st2" points="317.02,350.48 559.57,325.76 672.61,573.6 683.21,675.45 663.19,709 		"/>
	</g>
	<polygon class="st3" points="663.47,694.98 668.03,704.21 678.21,705.69 670.84,712.88 672.58,723.03 663.47,718.24 654.36,723.03 
		656.1,712.88 648.72,705.69 658.91,704.21 	"/>
	<polygon class="st3" points="683.2,661.16 687.76,670.39 697.95,671.87 690.57,679.06 692.31,689.21 683.2,684.42 674.09,689.21 
		675.83,679.06 668.46,671.87 678.65,670.39 	"/>
	<polygon class="st3" points="672.31,559.22 676.87,568.45 687.05,569.93 679.68,577.12 681.42,587.27 672.31,582.48 663.2,587.27 
		664.94,577.12 657.56,569.93 667.75,568.45 	"/>
	<polygon class="st3" points="559.15,311.73 563.71,320.97 573.89,322.45 566.52,329.63 568.26,339.78 559.15,334.99 550.03,339.78 
		551.78,329.63 544.4,322.45 554.59,320.97 	"/>
	<polygon class="st3" points="317.02,337.18 321.58,346.41 331.77,347.89 324.4,355.08 326.14,365.22 317.02,360.43 307.91,365.22 
		309.65,355.08 302.28,347.89 312.47,346.41 	"/>
</g>
</svg>
