<?xml version="1.0" encoding="utf-8"?>
<!-- Generator: Adobe Illustrator 24.2.0, SVG Export Plug-In . SVG Version: 6.00 Build 0)  -->
<svg version="1.1" id="Layer_1" xmlns="http://www.w3.org/2000/svg" xmlns:xlink="http://www.w3.org/1999/xlink" x="0px" y="0px"
	 viewBox="0 0 1000 1000" style="enable-background:new 0 0 1000 1000;" xml:space="preserve">
<style type="text/css">
	.st0{fill:#1B1464;}
	.st1{opacity:0.3;}
	.st2{fill:none;stroke:#FFFFFF;stroke-width:3;}
	.st3{fill:#FFFFFF;}
</style>
<g>
	<rect x="0.5" y="0.5" class="st0" width="999" height="999"/>
	<path d="M999,1v998H1V1H999 M1000,0H0v1000h1000V0L1000,0z"/>
</g>
<g>
	<g class="st1">
		<g>
			<polyline class="st2" points="463.72,229.16 475.61,426.19 463.72,516.28 369.66,687.57 			"/>
			<polyline class="st2" points="463.72,516.28 575.83,673.78 631.56,770.54 			"/>
		</g>
	</g>
	<polygon class="st3" points="463.72,215.13 468.28,224.36 478.47,225.84 471.09,233.03 472.84,243.18 463.72,238.39 454.61,243.18 
		456.35,233.03 448.98,225.84 459.17,224.36 	"/>
	<polygon class="st3" points="475.6,414.1 480.16,423.34 490.35,424.82 482.97,432 484.71,442.15 475.6,437.36 466.49,442.15 
		468.23,432 460.86,424.82 471.04,423.34 	"/>
	<polygon class="st3" points="463.72,503.9 468.28,513.14 478.47,514.62 471.09,521.8 472.84,531.95 463.72,527.16 454.61,531.95 
		456.35,521.8 448.98,514.62 459.17,513.14 	"/>
	<polygon class="st3" points="369.66,673.55 374.22,682.78 384.41,684.26 377.04,691.45 378.78,701.6 369.66,696.81 360.55,701.6 
		362.29,691.45 354.92,684.26 365.11,682.78 	"/>
	<polygon class="st3" points="575.45,658.29 580,667.52 590.19,669 582.82,676.19 584.56,686.33 575.45,681.54 566.33,686.33 
		568.08,676.19 560.7,669 570.89,667.52 	"/>
	<polygon class="st3" points="631.04,756.52 635.6,765.75 645.79,767.23 638.42,774.42 640.16,784.57 631.04,779.78 621.93,784.57 
		623.67,774.42 616.3,767.23 626.49,765.75 	"/>
</g>
</svg>
