<?xml version="1.0" encoding="utf-8"?>
<!-- Generator: Adobe Illustrator 24.2.0, SVG Export Plug-In . SVG Version: 6.00 Build 0)  -->
<svg version="1.1" id="Layer_1" xmlns="http://www.w3.org/2000/svg" xmlns:xlink="http://www.w3.org/1999/xlink" x="0px" y="0px"
	 viewBox="0 0 1000 1000" style="enable-background:new 0 0 1000 1000;" xml:space="preserve">
<style type="text/css">
	.st0{fill:#1B1464;}
	.st1{opacity:0.3;}
	.st2{fill:none;stroke:#FFFFFF;stroke-width:3;}
	.st3{fill:#FFFFFF;}
</style>
<g>
	<rect x="0.5" y="0.5" class="st0" width="999" height="999"/>
	<path d="M999,1v998H1V1H999 M1000,0H0v1000h1000V0L1000,0z"/>
</g>
<g>
	<g class="st1">
		<polyline class="st2" points="743.69,312.17 738.67,373.06 655.8,654.27 635.73,705.73 529.64,681.88 403.48,647.36 
			370.84,635.43 305.56,598.4 214.54,537.51 268.53,539.39 372.09,512.4 479.11,494.2 738.67,373.06 		"/>
	</g>
	<polygon class="st3" points="743.69,298.14 748.24,307.38 758.43,308.86 751.06,316.04 752.8,326.19 743.69,321.4 734.57,326.19 
		736.32,316.04 728.94,308.86 739.13,307.38 	"/>
	<polygon class="st3" points="738.99,359.4 743.55,368.63 753.73,370.11 746.36,377.3 748.1,387.44 738.99,382.65 729.88,387.44 
		731.62,377.3 724.24,370.11 734.43,368.63 	"/>
	<polygon class="st3" points="479.11,479.97 483.67,489.2 493.86,490.68 486.49,497.87 488.23,508.02 479.11,503.23 470,508.02 
		471.74,497.87 464.37,490.68 474.56,489.2 	"/>
	<polygon class="st3" points="370.73,497.97 375.29,507.21 385.48,508.69 378.1,515.87 379.84,526.02 370.73,521.23 361.62,526.02 
		363.36,515.87 355.99,508.69 366.18,507.21 	"/>
	<polygon class="st3" points="267.72,524.91 272.27,534.14 282.46,535.62 275.09,542.81 276.83,552.96 267.72,548.17 258.6,552.96 
		260.34,542.81 252.97,535.62 263.16,534.14 	"/>
	<polygon class="st3" points="214.54,524.91 219.1,534.14 229.28,535.62 221.91,542.81 223.65,552.96 214.54,548.17 205.43,552.96 
		207.17,542.81 199.79,535.62 209.98,534.14 	"/>
	<polygon class="st3" points="307.74,586.41 312.29,595.64 322.48,597.12 315.11,604.3 316.85,614.45 307.74,609.66 298.62,614.45 
		300.37,604.3 292.99,597.12 303.18,595.64 	"/>
	<polygon class="st3" points="370.73,621.13 375.29,630.37 385.48,631.85 378.1,639.03 379.84,649.18 370.73,644.39 361.62,649.18 
		363.36,639.03 355.99,631.85 366.18,630.37 	"/>
	<polygon class="st3" points="405.08,635.16 409.64,644.39 419.83,645.87 412.46,653.06 414.2,663.2 405.08,658.41 395.97,663.2 
		397.71,653.06 390.34,645.87 400.53,644.39 	"/>
	<polygon class="st3" points="531.09,668.11 535.65,677.34 545.83,678.82 538.46,686.01 540.2,696.16 531.09,691.37 521.98,696.16 
		523.72,686.01 516.34,678.82 526.53,677.34 	"/>
	<polygon class="st3" points="635.53,691.71 640.09,700.94 650.28,702.42 642.9,709.61 644.64,719.76 635.53,714.97 626.42,719.76 
		628.16,709.61 620.79,702.42 630.97,700.94 	"/>
	<polygon class="st3" points="650.79,647.96 655.35,657.19 665.54,658.67 658.16,665.86 659.9,676.01 650.79,671.22 641.68,676.01 
		643.42,665.86 636.05,658.67 646.24,657.19 	"/>
</g>
</svg>
