<?xml version="1.0" encoding="utf-8"?>
<!-- Generator: Adobe Illustrator 24.2.0, SVG Export Plug-In . SVG Version: 6.00 Build 0)  -->
<svg version="1.1" id="Layer_1" xmlns="http://www.w3.org/2000/svg" xmlns:xlink="http://www.w3.org/1999/xlink" x="0px" y="0px"
	 viewBox="0 0 1000 1000" style="enable-background:new 0 0 1000 1000;" xml:space="preserve">
<style type="text/css">
	.st0{fill:#1B1464;}
	.st1{opacity:0.3;}
	.st2{fill:none;stroke:#FFFFFF;stroke-width:3;}
	.st3{fill:#FFFFFF;}
</style>
<g>
	<rect x="0.5" y="0.5" class="st0" width="999" height="999"/>
	<path d="M999,1v998H1V1H999 M1000,0H0v1000h1000V0L1000,0z"/>
</g>
<g>
	<g class="st1">
		<g>
			<polygon class="st2" points="225.33,662.6 379.6,519.79 615.93,492.26 667.42,546.35 677.82,646.2 383.76,635.25 			"/>
			<polyline class="st2" points="615.93,492.26 611.25,413.21 689.26,331.55 719.95,374.2 			"/>
		</g>
	</g>
	<polygon class="st3" points="722.9,360.29 727.46,369.52 737.65,371 730.28,378.19 732.02,388.34 722.9,383.55 713.79,388.34 
		715.53,378.19 708.16,371 718.35,369.52 	"/>
	<polygon class="st3" points="689.3,319.27 693.86,328.51 704.05,329.99 696.67,337.17 698.41,347.32 689.3,342.53 680.19,347.32 
		681.93,337.17 674.56,329.99 684.74,328.51 	"/>
	<polygon class="st3" points="611.24,399.63 615.8,408.86 625.99,410.34 618.62,417.53 620.36,427.68 611.24,422.89 602.13,427.68 
		603.87,417.53 596.5,410.34 606.69,408.86 	"/>
	<polygon class="st3" points="616.61,478.23 621.17,487.47 631.36,488.95 623.98,496.13 625.72,506.28 616.61,501.49 607.5,506.28 
		609.24,496.13 601.86,488.95 612.05,487.47 	"/>
	<polygon class="st3" points="668.49,532.72 673.05,541.96 683.24,543.44 675.87,550.62 677.61,560.77 668.49,555.98 659.38,560.77 
		661.12,550.62 653.75,543.44 663.94,541.96 	"/>
	<polygon class="st3" points="677.81,631.65 682.37,640.89 692.56,642.37 685.19,649.55 686.93,659.7 677.81,654.91 668.7,659.7 
		670.44,649.55 663.07,642.37 673.26,640.89 	"/>
	<polygon class="st3" points="385.79,621.18 390.35,630.42 400.54,631.9 393.16,639.08 394.91,649.23 385.79,644.44 376.68,649.23 
		378.42,639.08 371.05,631.9 381.24,630.42 	"/>
	<polygon class="st3" points="225.32,648.58 229.88,657.81 240.07,659.29 232.69,666.48 234.43,676.63 225.32,671.84 216.21,676.63 
		217.95,666.48 210.58,659.29 220.77,657.81 	"/>
	<polygon class="st3" points="379.47,504.4 384.03,513.64 394.21,515.12 386.84,522.3 388.58,532.45 379.47,527.66 370.36,532.45 
		372.1,522.3 364.72,515.12 374.91,513.64 	"/>
</g>
</svg>
