<?xml version="1.0" encoding="utf-8"?>
<!-- Generator: Adobe Illustrator 24.2.0, SVG Export Plug-In . SVG Version: 6.00 Build 0)  -->
<svg version="1.1" id="Layer_1" xmlns="http://www.w3.org/2000/svg" xmlns:xlink="http://www.w3.org/1999/xlink" x="0px" y="0px"
	 viewBox="0 0 1000 1000" style="enable-background:new 0 0 1000 1000;" xml:space="preserve">
<style type="text/css">
	.st0{fill:#1B1464;}
	.st1{opacity:0.3;}
	.st2{fill:none;stroke:#FFFFFF;stroke-width:3;}
	.st3{fill:#FFFFFF;}
</style>
<g>
	<rect x="0.5" y="0.5" class="st0" width="999" height="999"/>
	<path d="M999,1v998H1V1H999 M1000,0H0v1000h1000V0L1000,0z"/>
</g>
<g>
	<g class="st1">
		<g>
			<polyline class="st2" points="722.64,689.63 686.08,674.8 689.92,642.78 651.98,435.68 453.37,298.32 267.59,436.66 
				380.74,603.17 389.63,669.37 410.87,735.58 			"/>
			<polyline class="st2" points="267.59,436.66 468.18,445.07 651.98,435.68 			"/>
		</g>
	</g>
	<polygon class="st3" points="453.66,284.3 458.22,293.53 468.41,295.01 461.04,302.19 462.78,312.34 453.66,307.55 444.55,312.34 
		446.29,302.19 438.92,295.01 449.11,293.53 	"/>
	<polygon class="st3" points="651.98,421.65 656.53,430.89 666.72,432.37 659.35,439.55 661.09,449.7 651.98,444.91 642.86,449.7 
		644.6,439.55 637.23,432.37 647.42,430.89 	"/>
	<polygon class="st3" points="466.96,431.04 471.52,440.28 481.71,441.76 474.33,448.94 476.07,459.09 466.96,454.3 457.85,459.09 
		459.59,448.94 452.22,441.76 462.4,440.28 	"/>
	<polygon class="st3" points="267.59,421.66 272.15,430.89 282.34,432.37 274.96,439.56 276.7,449.7 267.59,444.91 258.48,449.7 
		260.22,439.56 252.85,432.37 263.04,430.89 	"/>
	<polygon class="st3" points="380.26,589.01 384.82,598.25 395.01,599.73 387.63,606.91 389.37,617.06 380.26,612.27 371.15,617.06 
		372.89,606.91 365.51,599.73 375.7,598.25 	"/>
	<polygon class="st3" points="410.78,721.56 415.33,730.79 425.52,732.27 418.15,739.46 419.89,749.6 410.78,744.81 401.66,749.6 
		403.41,739.46 396.03,732.27 406.22,730.79 	"/>
	<polygon class="st3" points="689.45,628.75 694,637.98 704.19,639.46 696.82,646.65 698.56,656.8 689.45,652 680.33,656.8 
		682.07,646.65 674.7,639.46 684.89,637.98 	"/>
	<polygon class="st3" points="685.76,661.04 690.32,670.27 700.5,671.75 693.13,678.93 694.87,689.08 685.76,684.29 676.65,689.08 
		678.39,678.93 671.01,671.75 681.2,670.27 	"/>
	<polygon class="st3" points="722.63,675.06 727.19,684.29 737.38,685.77 730.01,692.96 731.75,703.1 722.63,698.32 713.52,703.1 
		715.26,692.96 707.89,685.77 718.08,684.29 	"/>
</g>
</svg>
