<?xml version="1.0" encoding="utf-8"?>
<!-- Generator: Adobe Illustrator 24.2.0, SVG Export Plug-In . SVG Version: 6.00 Build 0)  -->
<svg version="1.1" id="Layer_1" xmlns="http://www.w3.org/2000/svg" xmlns:xlink="http://www.w3.org/1999/xlink" x="0px" y="0px"
	 viewBox="0 0 1000 1000" style="enable-background:new 0 0 1000 1000;" xml:space="preserve">
<style type="text/css">
	.st0{fill:#1B1464;}
	.st1{opacity:0.3;}
	.st2{fill:none;stroke:#FFFFFF;stroke-width:3;}
	.st3{fill:#FFFFFF;}
</style>
<g>
	<rect x="0.5" y="0.5" class="st0" width="999" height="999"/>
	<path d="M999,1v998H1V1H999 M1000,0H0v1000h1000V0L1000,0z"/>
</g>
<g>
	<g class="st1">
		<g>
			<polygon class="st2" points="697.23,448.25 721.18,495.02 769.38,471.63 783.93,426.28 757.41,410.02 726.61,413.16 			"/>
			<polyline class="st2" points="697.23,448.25 634.48,472.2 499.43,554.91 456.58,575.44 399.19,638.76 373.51,667.57 
				356.97,712.06 335.02,731.17 337,633.91 330.73,541.22 341.86,444.82 307.92,408.31 271.7,382.64 254.3,366.67 267.13,332.73 			
				"/>
		</g>
	</g>
	<polygon class="st3" points="266.75,318.71 271.31,327.94 281.5,329.42 274.12,336.61 275.86,346.76 266.75,341.97 257.64,346.76 
		259.38,336.61 252.01,329.42 262.2,327.94 	"/>
	<polygon class="st3" points="254.3,352.34 258.86,361.57 269.04,363.05 261.67,370.24 263.41,380.38 254.3,375.59 245.19,380.38 
		246.93,370.24 239.55,363.05 249.74,361.57 	"/>
	<polygon class="st3" points="273.85,370.06 278.41,379.29 288.6,380.77 281.22,387.95 282.96,398.1 273.85,393.31 264.74,398.1 
		266.48,387.95 259.1,380.77 269.29,379.29 	"/>
	<polygon class="st3" points="306.74,394.88 311.3,404.12 321.48,405.6 314.11,412.78 315.85,422.93 306.74,418.14 297.63,422.93 
		299.37,412.78 291.99,405.6 302.18,404.12 	"/>
	<polygon class="st3" points="341.85,431.18 346.4,440.41 356.59,441.89 349.22,449.08 350.96,459.23 341.85,454.44 332.73,459.23 
		334.47,449.08 327.1,441.89 337.29,440.41 	"/>
	<polygon class="st3" points="330.16,528.36 334.71,537.59 344.9,539.07 337.53,546.26 339.27,556.4 330.16,551.61 321.04,556.4 
		322.78,546.26 315.41,539.07 325.6,537.59 	"/>
	<polygon class="st3" points="337.18,619.73 341.73,628.96 351.92,630.44 344.55,637.63 346.29,647.77 337.18,642.98 328.06,647.77 
		329.8,637.63 322.43,630.44 332.62,628.96 	"/>
	<polygon class="st3" points="335.05,717.14 339.61,726.38 349.8,727.86 342.42,735.04 344.16,745.19 335.05,740.4 325.94,745.19 
		327.68,735.04 320.31,727.86 330.49,726.38 	"/>
	<polygon class="st3" points="357.95,697.72 362.51,706.96 372.7,708.44 365.32,715.62 367.06,725.77 357.95,720.98 348.84,725.77 
		350.58,715.62 343.21,708.44 353.39,706.96 	"/>
	<polygon class="st3" points="371.86,653.75 376.42,662.99 386.61,664.47 379.23,671.65 380.97,681.8 371.86,677.01 362.75,681.8 
		364.49,671.65 357.11,664.47 367.3,662.99 	"/>
	<polygon class="st3" points="398.28,625.71 402.84,634.94 413.03,636.42 405.66,643.61 407.39,653.75 398.28,648.96 389.17,653.75 
		390.91,643.61 383.54,636.42 393.73,634.94 	"/>
	<polygon class="st3" points="456.04,561.28 460.6,570.51 470.79,571.99 463.41,579.18 465.15,589.33 456.04,584.54 446.93,589.33 
		448.67,579.18 441.3,571.99 451.48,570.51 	"/>
	<polygon class="st3" points="498.51,539.8 503.06,549.03 513.25,550.51 505.88,557.7 507.62,567.85 498.51,563.06 489.39,567.85 
		491.14,557.7 483.76,550.51 493.95,549.03 	"/>
	<polygon class="st3" points="634.49,457.46 639.05,466.7 649.24,468.18 641.87,475.36 643.61,485.51 634.49,480.72 625.38,485.51 
		627.12,475.36 619.75,468.18 629.94,466.7 	"/>
	<polygon class="st3" points="697.23,434.01 701.79,443.24 711.98,444.72 704.6,451.91 706.34,462.06 697.23,457.27 688.12,462.06 
		689.86,451.91 682.49,444.72 692.67,443.24 	"/>
	<polygon class="st3" points="725.32,399.91 729.87,409.15 740.06,410.63 732.69,417.81 734.43,427.96 725.32,423.17 716.2,427.96 
		717.94,417.81 710.57,410.63 720.76,409.15 	"/>
	<polygon class="st3" points="755.83,395.99 760.39,405.23 770.58,406.71 763.21,413.89 764.95,424.04 755.83,419.25 746.72,424.04 
		748.46,413.89 741.09,406.71 751.28,405.23 	"/>
	<polygon class="st3" points="783.93,411.26 788.48,420.49 798.67,421.97 791.3,429.16 793.04,439.3 783.93,434.51 774.81,439.3 
		776.56,429.16 769.18,421.97 779.37,420.49 	"/>
	<polygon class="st3" points="769.18,457.46 773.74,466.7 783.93,468.18 776.55,475.36 778.29,485.51 769.18,480.72 760.07,485.51 
		761.81,475.36 754.44,468.18 764.63,466.7 	"/>
	<polygon class="st3" points="720.27,479.56 724.83,488.79 735.01,490.27 727.64,497.46 729.38,507.61 720.27,502.82 711.16,507.61 
		712.9,497.46 705.52,490.27 715.71,488.79 	"/>
</g>
</svg>
