<?xml version="1.0" encoding="utf-8"?>
<!-- Generator: Adobe Illustrator 24.2.0, SVG Export Plug-In . SVG Version: 6.00 Build 0)  -->
<svg version="1.1" id="Layer_1" xmlns="http://www.w3.org/2000/svg" xmlns:xlink="http://www.w3.org/1999/xlink" x="0px" y="0px"
	 viewBox="0 0 1000 1000" style="enable-background:new 0 0 1000 1000;" xml:space="preserve">
<style type="text/css">
	.st0{fill:#1B1464;}
	.st1{opacity:0.3;}
	.st2{fill:none;stroke:#FFFFFF;stroke-width:3;}
	.st3{fill:#FFFFFF;}
</style>
<g>
	<rect x="0.5" y="0.5" class="st0" width="999" height="999"/>
	<path d="M999,1v998H1V1H999 M1000,0H0v1000h1000V0L1000,0z"/>
</g>
<g>
	<g class="st1">
		<g>
			<polyline class="st2" points="684.39,248.2 617.95,361.33 555.1,411.61 505.72,474.46 473.39,445.73 346.8,439.45 288.44,502.29 
				268.69,526.52 325.26,635.16 343.21,656.71 395.28,758.17 529.05,765.35 			"/>
			<line class="st2" x1="395.28" y1="758.17" x2="490.45" y2="697.12"/>
			<polyline class="st2" points="353.98,290.4 380.02,315.54 418.63,324.52 450.95,339.78 473.39,445.73 512,413.4 555.1,411.61 			
				"/>
			<polyline class="st2" points="617.95,361.33 661.04,431.36 671.82,519.34 711.31,560.65 			"/>
			<polyline class="st2" points="661.04,431.36 724.78,431.36 783.15,374.8 			"/>
		</g>
	</g>
	<polygon class="st3" points="354.11,275.15 358.66,284.38 368.85,285.86 361.48,293.05 363.22,303.19 354.11,298.4 344.99,303.19 
		346.73,293.05 339.36,285.86 349.55,284.38 	"/>
	<polygon class="st3" points="379.58,302.09 384.13,311.32 394.32,312.8 386.95,319.99 388.69,330.13 379.58,325.34 370.46,330.13 
		372.21,319.99 364.83,312.8 375.02,311.32 	"/>
	<polygon class="st3" points="419.35,307.91 423.91,317.14 434.1,318.62 426.72,325.81 428.46,335.95 419.35,331.16 410.24,335.95 
		411.98,325.81 404.61,318.62 414.8,317.14 	"/>
	<polygon class="st3" points="451.5,325.71 456.06,334.95 466.25,336.43 458.87,343.61 460.61,353.76 451.5,348.97 442.39,353.76 
		444.13,343.61 436.76,336.43 446.94,334.95 	"/>
	<polygon class="st3" points="472.79,430.47 477.35,439.7 487.54,441.18 480.16,448.37 481.9,458.52 472.79,453.73 463.68,458.52 
		465.42,448.37 458.05,441.18 468.23,439.7 	"/>
	<polygon class="st3" points="513.26,398.67 517.82,407.9 528.01,409.38 520.63,416.57 522.37,426.71 513.26,421.92 504.15,426.71 
		505.89,416.57 498.52,409.38 508.7,407.9 	"/>
	<polygon class="st3" points="555.1,397.39 559.65,406.62 569.84,408.1 562.47,415.29 564.21,425.44 555.1,420.65 545.98,425.44 
		547.72,415.29 540.35,408.1 550.54,406.62 	"/>
	<polygon class="st3" points="617.94,346.07 622.5,355.3 632.69,356.78 625.31,363.97 627.05,374.12 617.94,369.33 608.83,374.12 
		610.57,363.97 603.2,356.78 613.39,355.3 	"/>
	<polygon class="st3" points="661.03,416.45 665.59,425.68 675.78,427.16 668.41,434.35 670.15,444.49 661.03,439.7 651.92,444.49 
		653.66,434.35 646.29,427.16 656.48,425.68 	"/>
	<polygon class="st3" points="671.12,505.78 675.67,515.01 685.86,516.49 678.49,523.68 680.23,533.83 671.12,529.04 662,533.83 
		663.75,523.68 656.37,516.49 666.56,515.01 	"/>
	<polygon class="st3" points="711.83,546.63 716.39,555.86 726.58,557.34 719.2,564.53 720.94,574.67 711.83,569.88 702.72,574.67 
		704.46,564.53 697.08,557.34 707.27,555.86 	"/>
	<polygon class="st3" points="724.76,417.34 729.32,426.57 739.51,428.05 732.13,435.24 733.87,445.39 724.76,440.59 715.65,445.39 
		717.39,435.24 710.02,428.05 720.2,426.57 	"/>
	<polygon class="st3" points="783.14,360.09 787.7,369.33 797.89,370.81 790.51,377.99 792.25,388.14 783.14,383.35 774.03,388.14 
		775.77,377.99 768.4,370.81 778.58,369.33 	"/>
	<polygon class="st3" points="684.38,234.18 688.94,243.41 699.13,244.89 691.76,252.08 693.5,262.22 684.38,257.43 675.27,262.22 
		677.01,252.08 669.64,244.89 679.83,243.41 	"/>
	<polygon class="st3" points="505.86,459.05 510.42,468.29 520.6,469.76 513.23,476.95 514.97,487.1 505.86,482.31 496.75,487.1 
		498.49,476.95 491.11,469.76 501.3,468.29 	"/>
	<polygon class="st3" points="268.7,511.84 273.25,521.07 283.44,522.55 276.07,529.74 277.81,539.89 268.7,535.1 259.58,539.89 
		261.32,529.74 253.95,522.55 264.14,521.07 	"/>
	<polygon class="st3" points="325.02,618.57 329.58,627.8 339.77,629.28 332.4,636.47 334.14,646.61 325.02,641.82 315.91,646.61 
		317.65,636.47 310.28,629.28 320.47,627.8 	"/>
	<polygon class="st3" points="342.54,642.31 347.1,651.54 357.29,653.02 349.92,660.21 351.65,670.35 342.54,665.56 333.43,670.35 
		335.17,660.21 327.8,653.02 337.99,651.54 	"/>
	<polygon class="st3" points="395.28,742.91 399.84,752.14 410.03,753.62 402.65,760.81 404.39,770.95 395.28,766.16 386.17,770.95 
		387.91,760.81 380.54,753.62 390.72,752.14 	"/>
	<polygon class="st3" points="529.29,751.33 533.85,760.56 544.04,762.04 536.66,769.23 538.4,779.38 529.29,774.59 520.18,779.38 
		521.92,769.23 514.55,762.04 524.73,760.56 	"/>
	<polygon class="st3" points="490.46,681.86 495.02,691.09 505.2,692.57 497.83,699.75 499.57,709.9 490.46,705.11 481.34,709.9 
		483.09,699.75 475.71,692.57 485.9,691.09 	"/>
</g>
</svg>
