<?xml version="1.0" encoding="utf-8"?>
<!-- Generator: Adobe Illustrator 24.2.0, SVG Export Plug-In . SVG Version: 6.00 Build 0)  -->
<svg version="1.1" id="Layer_1" xmlns="http://www.w3.org/2000/svg" xmlns:xlink="http://www.w3.org/1999/xlink" x="0px" y="0px"
	 viewBox="0 0 1000 1000" style="enable-background:new 0 0 1000 1000;" xml:space="preserve">
<style type="text/css">
	.st0{fill:#1B1464;}
	.st1{opacity:0.3;}
	.st2{fill:none;stroke:#FFFFFF;stroke-width:3;}
	.st3{fill:#FFFFFF;}
</style>
<g>
	<rect x="0.5" y="0.5" class="st0" width="999" height="999"/>
	<path d="M999,1v998H1V1H999 M1000,0H0v1000h1000V0L1000,0z"/>
</g>
<g>
	<g class="st1">
		<g>
			<polyline class="st2" points="412.34,651.02 382.73,645.45 362.99,688.8 358.27,712.39 412.34,754.45 497.74,729.56 
				560.06,706.12 556.11,678.06 541.52,620.12 525.21,551.89 549.24,428.73 598.16,364.36 671.55,294.02 			"/>
			<polyline class="st2" points="637.11,245.45 598.16,364.36 693.44,358.42 			"/>
		</g>
	</g>
	<polygon class="st3" points="412.62,637.32 417.18,646.55 427.37,648.03 420,655.22 421.74,665.37 412.62,660.58 403.51,665.37 
		405.25,655.22 397.88,648.03 408.07,646.55 	"/>
	<polygon class="st3" points="382.1,631.64 386.66,640.88 396.85,642.36 389.48,649.54 391.22,659.69 382.1,654.9 372.99,659.69 
		374.73,649.54 367.36,642.36 377.55,640.88 	"/>
	<polygon class="st3" points="362.86,672.81 367.41,682.05 377.6,683.53 370.23,690.71 371.97,700.86 362.86,696.07 353.74,700.86 
		355.49,690.71 348.11,683.53 358.3,682.05 	"/>
	<polygon class="st3" points="358.27,698.2 362.82,707.44 373.01,708.92 365.64,716.1 367.38,726.25 358.27,721.46 349.15,726.25 
		350.9,716.1 343.52,708.92 353.71,707.44 	"/>
	<polygon class="st3" points="412.62,740.43 417.18,749.66 427.37,751.14 420,758.33 421.74,768.48 412.62,763.69 403.51,768.48 
		405.25,758.33 397.88,751.14 408.07,749.66 	"/>
	<polygon class="st3" points="497.18,713.46 501.74,722.7 511.93,724.17 504.55,731.36 506.29,741.51 497.18,736.72 488.07,741.51 
		489.81,731.36 482.43,724.17 492.62,722.7 	"/>
	<polygon class="st3" points="560.06,692.68 564.62,701.91 574.81,703.39 567.43,710.58 569.17,720.73 560.06,715.94 550.95,720.73 
		552.69,710.58 545.31,703.39 555.5,701.91 	"/>
	<polygon class="st3" points="555.57,663.4 560.12,672.63 570.31,674.11 562.94,681.3 564.68,691.44 555.57,686.65 546.45,691.44 
		548.19,681.3 540.82,674.11 551.01,672.63 	"/>
	<polygon class="st3" points="525.05,534.98 529.61,544.22 539.79,545.7 532.42,552.88 534.16,563.03 525.05,558.24 515.94,563.03 
		517.68,552.88 510.3,545.7 520.49,544.22 	"/>
	<polygon class="st3" points="548.25,413.62 552.81,422.86 563,424.34 555.62,431.52 557.36,441.67 548.25,436.88 539.14,441.67 
		540.88,431.52 533.51,424.34 543.69,422.86 	"/>
	<polygon class="st3" points="598.16,350.33 602.72,359.57 612.91,361.05 605.54,368.23 607.28,378.38 598.16,373.59 589.05,378.38 
		590.79,368.23 583.42,361.05 593.61,359.57 	"/>
	<polygon class="st3" points="637.17,231.42 641.73,240.66 651.92,242.14 644.54,249.32 646.28,259.47 637.17,254.68 628.06,259.47 
		629.8,249.32 622.43,242.14 632.61,240.66 	"/>
	<polygon class="st3" points="671.55,278.76 676.11,287.99 686.3,289.47 678.92,296.66 680.66,306.8 671.55,302.01 662.44,306.8 
		664.18,296.66 656.81,289.47 667,287.99 	"/>
	<polygon class="st3" points="693.96,344 698.52,353.23 708.71,354.71 701.33,361.9 703.07,372.05 693.96,367.26 684.85,372.05 
		686.59,361.9 679.21,354.71 689.4,353.23 	"/>
</g>
</svg>
