<?xml version="1.0" encoding="utf-8"?>
<!-- Generator: Adobe Illustrator 24.2.0, SVG Export Plug-In . SVG Version: 6.00 Build 0)  -->
<svg version="1.1" id="Layer_1" xmlns="http://www.w3.org/2000/svg" xmlns:xlink="http://www.w3.org/1999/xlink" x="0px" y="0px"
	 viewBox="0 0 1000 1000" style="enable-background:new 0 0 1000 1000;" xml:space="preserve">
<style type="text/css">
	.st0{fill:#1B1464;}
	.st1{opacity:0.3;}
	.st2{fill:none;stroke:#FFFFFF;stroke-width:3;}
	.st3{fill:#FFFFFF;}
</style>
<g>
	<rect x="0.5" y="0.5" class="st0" width="999" height="999"/>
	<path d="M999,1v998H1V1H999 M1000,0H0v1000h1000V0L1000,0z"/>
</g>
<g>
	<g class="st1">
		<g>
			<polyline class="st2" points="345.82,285.39 486.92,441.22 510.15,486.55 527.2,540.95 494.29,530.19 464.25,512.62 
				258.56,374.92 			"/>
			<polyline class="st2" points="527.2,540.95 588.34,608.38 713.01,674.11 720.37,690.55 			"/>
		</g>
	</g>
	<polygon class="st3" points="346.23,271.5 350.79,280.74 360.98,282.22 353.61,289.4 355.35,299.55 346.23,294.76 337.12,299.55 
		338.86,289.4 331.49,282.22 341.68,280.74 	"/>
	<polygon class="st3" points="487.64,427.9 492.2,437.14 502.38,438.62 495.01,445.8 496.75,455.95 487.64,451.16 478.53,455.95 
		480.27,445.8 472.89,438.62 483.08,437.14 	"/>
	<polygon class="st3" points="511.93,475.13 516.49,484.36 526.68,485.84 519.31,493.03 521.05,503.18 511.93,498.39 502.82,503.18 
		504.56,493.03 497.19,485.84 507.38,484.36 	"/>
	<polygon class="st3" points="455.08,490.39 459.63,499.62 469.82,501.1 462.45,508.29 464.19,518.43 455.08,513.64 445.96,518.43 
		447.7,508.29 440.33,501.1 450.52,499.62 	"/>
	<polygon class="st3" points="490.4,511.67 494.96,520.9 505.15,522.38 497.78,529.57 499.52,539.71 490.4,534.92 481.29,539.71 
		483.03,529.57 475.66,522.38 485.85,520.9 	"/>
	<polygon class="st3" points="527.19,526.93 531.75,536.16 541.94,537.64 534.57,544.83 536.31,554.98 527.19,550.19 518.08,554.98 
		519.82,544.83 512.45,537.64 522.64,536.16 	"/>
	<polygon class="st3" points="585.81,592.46 590.37,601.69 600.56,603.18 593.18,610.36 594.92,620.51 585.81,615.72 576.7,620.51 
		578.44,610.36 571.06,603.18 581.25,601.69 	"/>
	<polygon class="st3" points="711.23,657.05 715.79,666.28 725.98,667.76 718.6,674.95 720.34,685.1 711.23,680.31 702.12,685.1 
		703.86,674.95 696.49,667.76 706.67,666.28 	"/>
	<polygon class="st3" points="723.67,681.41 728.23,690.65 738.42,692.12 731.04,699.31 732.78,709.46 723.67,704.67 714.56,709.46 
		716.3,699.31 708.93,692.12 719.12,690.65 	"/>
	<polygon class="st3" points="258.55,359.19 263.11,368.42 273.3,369.9 265.93,377.09 267.67,387.24 258.55,382.45 249.44,387.24 
		251.18,377.09 243.81,369.9 254,368.42 	"/>
</g>
</svg>
