<?xml version="1.0" encoding="utf-8"?>
<!-- Generator: Adobe Illustrator 24.2.0, SVG Export Plug-In . SVG Version: 6.00 Build 0)  -->
<svg version="1.1" id="Layer_1" xmlns="http://www.w3.org/2000/svg" xmlns:xlink="http://www.w3.org/1999/xlink" x="0px" y="0px"
	 viewBox="0 0 1000 1000" style="enable-background:new 0 0 1000 1000;" xml:space="preserve">
<style type="text/css">
	.st0{fill:#1B1464;}
	.st1{opacity:0.3;}
	.st2{fill:none;stroke:#FFFFFF;stroke-width:3;}
	.st3{fill:#FFFFFF;}
</style>
<g>
	<rect x="0.5" y="0.5" class="st0" width="999" height="999"/>
	<path d="M999,1v998H1V1H999 M1000,0H0v1000h1000V0L1000,0z"/>
</g>
<g>
	<g class="st1">
		<g>
			<polygon class="st2" points="421.38,414.36 508.52,370.13 575.2,464.54 659.71,513.39 480.13,539.8 			"/>
			<polyline class="st2" points="508.52,370.13 496.64,301.46 462.31,203.09 			"/>
			<line class="st2" x1="421.38" y1="414.36" x2="293.3" y2="427.56"/>
			<polyline class="st2" points="480.13,539.8 437.88,621.67 421.38,762.29 			"/>
			<polyline class="st2" points="659.71,513.39 651.78,656.66 562,680.42 562,733.9 532.96,776.81 			"/>
		</g>
	</g>
	<polygon class="st3" points="462.3,189.07 466.86,198.3 477.05,199.78 469.68,206.97 471.42,217.11 462.3,212.32 453.19,217.11 
		454.93,206.97 447.56,199.78 457.75,198.3 	"/>
	<polygon class="st3" points="508.52,356.1 513.08,365.33 523.27,366.81 515.89,374 517.63,384.14 508.52,379.35 499.41,384.14 
		501.15,374 493.78,366.81 503.97,365.33 	"/>
	<polygon class="st3" points="574.91,450.31 579.47,459.55 589.65,461.03 582.28,468.21 584.02,478.36 574.91,473.57 565.8,478.36 
		567.54,468.21 560.16,461.03 570.35,459.55 	"/>
	<polygon class="st3" points="659.71,500.6 664.27,509.84 674.46,511.32 667.08,518.5 668.82,528.65 659.71,523.86 650.6,528.65 
		652.34,518.5 644.97,511.32 655.15,509.84 	"/>
	<polygon class="st3" points="651.62,642.1 656.17,651.34 666.36,652.82 658.99,660 660.73,670.15 651.62,665.36 642.5,670.15 
		644.25,660 636.87,652.82 647.06,651.34 	"/>
	<polygon class="st3" points="561.87,666.72 566.43,675.95 576.61,677.43 569.24,684.62 570.98,694.77 561.87,689.98 552.75,694.77 
		554.5,684.62 547.12,677.43 557.31,675.95 	"/>
	<polygon class="st3" points="561.87,719.78 566.43,729.01 576.61,730.49 569.24,737.68 570.98,747.82 561.87,743.03 552.75,747.82 
		554.5,737.68 547.12,730.49 557.31,729.01 	"/>
	<polygon class="st3" points="532.95,762.79 537.51,772.02 547.7,773.5 540.32,780.68 542.06,790.83 532.95,786.04 523.84,790.83 
		525.58,780.68 518.21,773.5 528.39,772.02 	"/>
	<polygon class="st3" points="421.37,747.53 425.93,756.77 436.12,758.25 428.74,765.43 430.48,775.58 421.37,770.79 412.26,775.58 
		414,765.43 406.63,758.25 416.81,756.77 	"/>
	<polygon class="st3" points="437.99,607.69 442.54,616.93 452.73,618.41 445.36,625.59 447.1,635.74 437.99,630.95 428.88,635.74 
		430.62,625.59 423.24,618.41 433.43,616.93 	"/>
	<polygon class="st3" points="480.13,524.59 484.69,533.82 494.88,535.3 487.5,542.48 489.24,552.63 480.13,547.84 471.02,552.63 
		472.76,542.48 465.39,535.3 475.57,533.82 	"/>
	<polygon class="st3" points="421.37,400.33 425.93,409.57 436.12,411.05 428.74,418.23 430.48,428.38 421.37,423.59 412.26,428.38 
		414,418.23 406.63,411.05 416.81,409.57 	"/>
	<polygon class="st3" points="293.29,412.31 297.85,421.54 308.04,423.02 300.67,430.21 302.41,440.36 293.29,435.57 284.18,440.36 
		285.92,430.21 278.55,423.02 288.74,421.54 	"/>
</g>
</svg>
